<?xml version="1.0" encoding="UTF-8"?>
<svg id="a" data-name="openshare" xmlns="http://www.w3.org/2000/svg" viewBox="0 0 580 580">
  <defs>
    <style>
      .b {
        stroke-width: 5px;
      }

      .b, .c, .d, .e, .f {
        fill: none;
        stroke: #000;
        stroke-linecap: round;
        stroke-miterlimit: 10;
      }

      .c {
        stroke-width: 6px;
      }

      .g {
        fill: #fff;
      }

      .d {
        stroke-width: 10px;
      }

      .e {
        stroke-width: 8px;
      }

      .f {
        stroke-width: 7px;
      }
    </style>
  </defs>
  <rect class="g" x="36.49" y="36.49" width="507.01" height="507.01" rx="91.23" ry="91.23" transform="translate(84.94 -65.18) rotate(15)"/>
  <g>
    <path class="e" d="M394.69,114c0,154.39-127.05,281.44-281.44,281.44"/>
    <path class="f" d="M329.74,114c0,118.76-97.73,216.49-216.49,216.49"/>
    <path class="c" d="M264.79,114c0,83.13-68.41,151.54-151.54,151.54"/>
    <path class="b" d="M199.85,114c0,47.51-39.09,86.6-86.6,86.6"/>
  </g>
  <g>
    <path class="e" d="M185.96,466.75c0-153.63,126.41-280.04,280.04-280.04"/>
    <path class="f" d="M250.58,466.75c0-118.17,97.24-215.42,215.42-215.42"/>
    <path class="c" d="M315.21,466.75c0-82.72,68.07-150.79,150.79-150.79"/>
    <path class="b" d="M379.83,466.75c0-47.27,38.9-86.17,86.17-86.17"/>
  </g>
  <g>
    <line class="d" x1="134" y1="498.5" x2="134" y2="400"/>
    <line class="d" x1="104.45" y1="429.05" x2="134" y2="399.5"/>
    <line class="d" x1="163.55" y1="429.05" x2="134" y2="399.5"/>
  </g>
  <g>
    <line class="d" x1="444" y1="79.5" x2="444" y2="178"/>
    <line class="d" x1="473.55" y1="148.95" x2="444" y2="178.5"/>
    <line class="d" x1="414.45" y1="148.95" x2="444" y2="178.5"/>
  </g>
  <rect x="97" y="97" width="35" height="35"/>
  <rect x="451" y="451" width="35" height="35"/>
</svg>